<svg width="900" height="230" viewBox="0 0 900 230" fill="none" xmlns="http://www.w3.org/2000/svg">
<g clip-path="url(#clip0_1340_1821)">
<path d="M302.186 0L775.179 50.8752V229.926H302.186V0Z" fill="#A7BB3B"/>
<path d="M124.815 51.5357L302.186 0V229.926H124.815V51.5357Z" fill="#729343"/>
<path d="M705.422 190.273H690.3C689.952 190.273 689.779 190.053 689.779 189.624L690.039 94.2241C690.039 93.7896 690.213 93.5752 690.561 93.5752L705.549 94.8556C705.897 94.8556 706.071 95.07 706.071 95.5045V129.67L726.992 97.7525C727.34 97.4049 727.664 97.2311 727.971 97.2311L743.284 97.4165C743.672 97.4165 743.765 97.5903 743.545 97.9379L720.474 134.757L746.349 189.758C746.563 190.105 746.349 190.279 745.694 190.279H729.402C728.968 190.279 728.707 190.105 728.62 189.758L710.567 150.528L705.943 157.828V189.63C705.943 190.065 705.769 190.279 705.422 190.279V190.273Z" fill="#213822"/>
<path d="M680.143 190.366H664.193C663.735 190.366 663.504 190.123 663.504 189.642L663.689 91.055C663.689 90.6668 663.874 90.4756 664.239 90.4756L680.01 92.0341C680.375 92.0341 680.561 92.2253 680.561 92.6135L680.7 189.648C680.7 190.134 680.514 190.372 680.149 190.372L680.143 190.366Z" fill="#213822"/>
<path d="M637.472 190.337H621.586C621.174 190.337 620.966 190.105 620.966 189.648V100.377H602.675C602.217 100.377 601.985 100.145 601.985 99.6876L602.153 84.1197C602.153 83.7547 602.339 83.5693 602.704 83.5693L656.163 89.0271C656.667 89.0271 656.922 89.2125 656.922 89.5775V99.6934C656.922 100.151 656.737 100.383 656.372 100.383H637.872L638.011 189.653C638.011 190.111 637.826 190.343 637.461 190.343L637.472 190.337Z" fill="#213822"/>
<path d="M567.825 191.774C562.408 191.774 557.408 190.343 552.831 187.487C548.306 184.63 544.673 180.83 541.939 176.084C539.25 171.293 537.912 166.038 537.912 160.325V153.135C537.912 152.573 538.161 152.295 538.659 152.295H555.815C556.214 152.295 556.411 152.579 556.411 153.135V160.325C556.411 163.744 557.53 166.704 559.766 169.201C562.002 171.652 564.691 172.875 567.819 172.875C570.948 172.875 573.712 171.623 575.948 169.126C578.184 166.577 579.308 163.645 579.308 160.325C579.308 156.501 576.869 153.158 571.997 150.302C571.203 149.792 570.16 149.178 568.862 148.466C567.617 147.701 566.128 146.832 564.389 145.864C562.651 144.897 560.96 143.952 559.314 143.031C557.674 142.063 556.081 141.142 554.54 140.279C548.972 136.913 544.818 132.706 542.083 127.654C539.401 122.556 538.057 116.843 538.057 110.516C538.057 104.699 539.447 99.4444 542.234 94.7572C545.021 90.1164 548.648 86.4431 553.126 83.7374C557.651 80.9854 562.553 79.6064 567.819 79.6064C573.086 79.6064 578.213 80.9854 582.738 83.7374C587.263 86.5416 590.867 90.267 593.555 94.9078C596.29 99.5486 597.657 104.751 597.657 110.516V123.367C597.657 123.772 597.46 123.981 597.061 123.981H579.905C579.505 123.981 579.308 123.778 579.308 123.367L579.158 110.516C579.158 106.843 578.04 103.859 575.803 101.565C573.567 99.2705 570.907 98.1234 567.819 98.1234C564.731 98.1234 562.002 99.3459 559.766 101.797C557.53 104.247 556.411 107.156 556.411 110.522C556.411 113.888 557.107 116.797 558.503 119.091C559.946 121.385 562.559 123.581 566.336 125.673C566.736 125.876 567.651 126.385 569.094 127.202C570.537 128.019 572.13 128.935 573.868 129.954C575.658 130.922 577.275 131.814 578.717 132.631C580.16 133.396 581.029 133.854 581.33 134.01C586.406 136.919 590.404 140.487 593.341 144.723C596.325 148.958 597.814 154.161 597.814 160.331C597.814 166.502 596.47 171.658 593.787 176.397C591.052 181.142 587.42 184.891 582.895 187.643C578.37 190.395 573.347 191.774 567.825 191.774Z" fill="#213822"/>
<path d="M504.337 193.715C499.302 193.715 494.574 192.394 490.281 189.781C486 187.174 482.535 183.64 479.974 179.265C477.454 174.833 476.179 169.949 476.179 164.74L476.451 72.8104C476.451 72.1268 476.898 71.6807 477.581 71.6807L493.404 72.6308C494.053 72.6308 494.499 73.0712 494.499 73.7606V164.028C494.499 167.029 495.467 169.625 497.379 171.757C499.731 174.323 502.008 175.575 504.331 175.575C507.211 175.575 509.546 174.555 511.469 172.463C513.375 170.343 514.343 167.742 514.343 164.74V76.6343C514.343 75.9507 514.783 75.5046 515.473 75.5046L531.342 76.9414C531.973 76.9414 532.414 77.3817 532.414 78.0654L532.686 164.735C532.686 169.995 531.411 174.903 528.897 179.323C526.336 183.703 522.894 187.238 518.659 189.845C514.412 192.411 509.592 193.715 504.325 193.715H504.337Z" fill="#213822"/>
<path d="M420.13 190.366H401.266C400.831 190.366 400.617 190.094 400.617 189.555L400.999 64.7164C400.999 64.1718 401.213 63.9053 401.648 63.9053L420.298 65.8636C420.733 65.8636 420.947 66.1359 420.947 66.6747V114.74L449.673 69.5948C450.107 69.1602 450.513 68.9459 450.889 68.9459L469.939 70.6492C470.426 70.6492 470.536 70.8636 470.264 71.2981L438.914 121.084L471.197 189.717C471.469 190.152 471.197 190.366 470.385 190.366H450.055C449.51 190.366 449.186 190.152 449.082 189.717L426.555 140.766L420.785 149.873V189.555C420.785 190.1 420.565 190.366 420.136 190.366H420.13Z" fill="#213822"/>
<path d="M330.251 189.556L350.906 59.7749C351.016 59.3403 351.288 59.126 351.717 59.126L375.871 61.6868C376.306 61.6868 376.578 61.907 376.683 62.3357L396.526 189.556C396.578 190.1 396.364 190.367 395.877 190.367H377.418C376.874 190.367 376.578 190.094 376.526 189.556L374.736 177.36H352.047L350.257 189.556C350.205 190.1 349.933 190.367 349.446 190.367H330.906C330.471 190.367 330.257 190.094 330.257 189.556H330.251ZM362.859 99.9895L355.379 159.55H371.399L364.568 99.9895L363.594 93.8075L362.864 99.9895H362.859Z" fill="#213822"/>
<path d="M251.392 190.042H231.398C230.911 190.042 230.645 189.781 230.592 189.254L207.771 77.938C207.666 77.5151 207.881 77.3065 208.414 77.3065H227.122C227.551 77.3065 227.817 77.5151 227.927 77.938L241.473 152.151L255.94 69.3864C256.044 68.9635 256.317 68.7549 256.746 68.7549H275.21C275.801 68.7549 276.016 68.9635 275.853 69.3864L252.192 189.254C252.139 189.781 251.867 190.042 251.386 190.042H251.392Z" fill="#213822"/>
<path d="M180.105 190.511C175.019 190.511 169.155 189.248 165.071 186.728C160.945 184.208 157.62 180.818 155.1 176.554C152.626 172.29 151.386 167.522 151.386 162.249V109.943C151.386 104.81 152.649 100.134 155.169 95.9164C157.643 91.6522 160.969 88.2628 165.14 85.7425C169.312 83.1759 173.871 81.8896 178.825 81.8896C183.779 81.8896 188.68 83.1295 192.852 85.6035C197.023 88.1238 200.326 91.4957 202.753 95.7136C205.227 99.9315 206.467 104.677 206.467 109.949V116.415C206.467 116.78 206.235 116.965 205.778 116.965H189.961C189.596 116.965 189.41 116.78 189.41 116.415V111.05C189.41 107.475 188.402 104.52 186.386 102.179C184.37 99.8446 181.849 98.6742 178.819 98.6742C176.114 98.6742 173.709 99.7982 171.6 102.046C169.491 104.294 168.437 106.93 168.437 109.955V162.261C168.437 165.332 169.468 167.991 171.531 170.239C173.593 172.441 177.301 173.541 180.1 173.541C183.124 173.541 185.644 172.464 187.661 170.309C189.677 168.107 190.685 165.424 190.685 162.261V155.314H180.853C180.349 155.314 180.094 155.088 180.094 154.625V138.877C180.094 138.42 180.349 138.188 180.853 138.188H207.186C207.551 138.188 207.736 138.42 207.736 138.877V162.255C207.736 167.528 206.496 172.296 204.022 176.56C201.502 180.824 198.176 184.214 194.051 186.734C189.926 189.254 185.274 190.517 180.094 190.517L180.105 190.511Z" fill="#213822"/>
<path d="M0 130.673H9.85522V147.457H0V130.673Z" fill="#213822"/>
<path d="M13.5518 114.606H23.407V159.636H13.5518V114.606Z" fill="#213822"/>
<path d="M27.0977 130.539H36.9529V197.075H27.0977V130.539Z" fill="#213822"/>
<path d="M40.6489 75.1914H50.5041V182.788H40.6489V75.1914Z" fill="#213822"/>
<path d="M54.1948 105.354H64.05V162.295H54.1948V105.354Z" fill="#213822"/>
<path d="M67.7466 98.5693H77.6018V143.599H67.7466V98.5693Z" fill="#213822"/>
<path d="M81.2925 87.2832H91.1477V186.525H81.2925V87.2832Z" fill="#213822"/>
<path d="M108.396 102.405H118.251V187.249H108.396V102.405Z" fill="#213822"/>
<path d="M94.8442 136.524H104.699V162.289H94.8442V136.524Z" fill="#213822"/>
<path d="M900 147.457H890.145V130.673H900V147.457Z" fill="#213822"/>
<path d="M886.448 159.636H876.593V114.606H886.448V159.636Z" fill="#213822"/>
<path d="M872.897 197.081H863.042V130.545H872.897V197.081Z" fill="#213822"/>
<path d="M859.351 182.794H849.496V75.1973H859.351V182.794Z" fill="#213822"/>
<path d="M845.799 162.295H835.944V105.354H845.799V162.295Z" fill="#213822"/>
<path d="M832.253 143.599H822.398V98.5693H832.253V143.599Z" fill="#213822"/>
<path d="M818.702 186.531H808.846V87.2891H818.702V186.531Z" fill="#213822"/>
<path d="M791.604 187.249H781.749V102.405H791.604V187.249Z" fill="#213822"/>
<path d="M805.156 162.289H795.301V136.524H805.156V162.289Z" fill="#213822"/>
</g>
<defs>
<clipPath id="clip0_1340_1821">
<rect width="900" height="229.926" fill="white"/>
</clipPath>
</defs>
</svg>
